<svg version="1.1" baseProfile="preserve" viewBox="1 1 32 32" width="32" height="32"
  xmlns="http://www.w3.org/2000/svg" xmlns:xlink="http://www.w3.org/1999/xlink">
  <path fill="#fdcf30" d="M4 14l7.923966-7.923966A5.315073 5.315073 0 0 0 17 5l2.5 2.5-4 4L33 29l-4 4-17.5-17.5-3 3zm.5 8.5a16.62077 16.62077 0 0 0 12 5.12077A11.12077 11.12077 0 0 0 27.62077 16.5 16.62077 16.62077 0 0 0 17 1a16 16 0 0 1 0 32 18 18 0 0 1-14.979984-8.020016zM3 29l2-2 2 2-2 2z"/>
  <circle fill="#fdcf30" cx="3.5" cy="30.5" r="2.5"/>
</svg>
